<?xml version="1.0" ?><svg viewBox="0 0 32 32" xmlns="http://www.w3.org/2000/svg"><defs><style>.cls-1{fill:#0e6ae0;}.cls-2{fill:#d8e1ef;}.cls-3{fill:#0593ff;}</style></defs><title/><g id="Search"><path class="cls-1" d="M22,23a1,1,0,0,1-.71-.29l-1.93-1.93a1,1,0,0,1,1.42-1.42l1.93,1.93a1,1,0,0,1,0,1.42A1,1,0,0,1,22,23Z"/><path class="cls-2" d="M13,24A11,11,0,1,1,24,13,11,11,0,0,1,13,24ZM13,4a9,9,0,1,0,9,9A9,9,0,0,0,13,4Z"/><path class="cls-3" d="M28.21,23.79l-3.5-3.5a1,1,0,0,0-1.42,0l-3,3a1,1,0,0,0,0,1.42l3.5,3.5a3.14,3.14,0,0,0,4.42,0A3.14,3.14,0,0,0,28.21,23.79Z"/></g></svg>