<?xml version="1.0" ?><svg viewBox="0 0 32 32" xmlns="http://www.w3.org/2000/svg"><defs><style>.cls-1{fill:#d8e1ef;}.cls-2{fill:#0593ff;}</style></defs><title/><g data-name="Chat Cancel" id="Chat_Cancel"><path class="cls-1" d="M25,5H7A3,3,0,0,0,4,8V20a3,3,0,0,0,3,3H8v3a1,1,0,0,0,.53.88,1,1,0,0,0,1-.05L15.3,23H25a3,3,0,0,0,3-3V8A3,3,0,0,0,25,5Z"/><path class="cls-2" d="M17.41,14l1.3-1.29a1,1,0,0,0-1.42-1.42L16,12.59l-1.29-1.3a1,1,0,0,0-1.42,1.42L14.59,14l-1.3,1.29a1,1,0,0,0,1.42,1.42L16,15.41l1.29,1.3a1,1,0,0,0,1.42-1.42Z"/></g></svg>