<?xml version="1.0" ?><svg viewBox="0 0 32 32" xmlns="http://www.w3.org/2000/svg"><defs><style>.cls-1{fill:#0593ff;}.cls-2{fill:#d8e1ef;}.cls-3{fill:#0e6ae0;}</style></defs><title/><g data-name="Folder Warning" id="Folder_Warning"><path class="cls-1" d="M14.83,6.45l-1.4-2.11A3,3,0,0,0,10.93,3H4A2,2,0,0,0,2,5V7A1,1,0,0,0,3,8H14a1,1,0,0,0,.88-.53A1,1,0,0,0,14.83,6.45Z"/><path class="cls-2" d="M22,6H2V20a2,2,0,0,0,2,2H23a1,1,0,0,0,1-1V8A2,2,0,0,0,22,6Z"/><circle class="cls-1" cx="23" cy="22" r="7"/><path class="cls-3" d="M23,23a1,1,0,0,1-1-1V19a1,1,0,0,1,2,0v3A1,1,0,0,1,23,23Z"/><path class="cls-3" d="M23,26a1,1,0,0,1,0-2,1,1,0,0,1,1,1A1,1,0,0,1,23,26Z"/></g></svg>