<?xml version="1.0" ?>
<svg viewBox="0 0 32 32" xmlns="http://www.w3.org/2000/svg">
<defs><style>.cls-1{fill:#0593ff;}.cls-2{fill:#d8e1ef;}</style></defs><title/>
<g data-name="Hyper Link" id="Hyper_Link">
<path class="cls-1" d="M18,21.74a5.23,5.23,0,0,1-4.3-8.23,1,1,0,0,1,1.64,1.16,3.19,3.19,0,0,0,.37,4.12,3.23,3.23,0,0,0,4.58,0l6-6a3.24,3.24,0,0,0-4.58-4.58l-2.55,2.55a1,1,0,1,1-1.42-1.42l2.55-2.55a5.25,5.25,0,0,1,7.42,7.42l-6,6A5.24,5.24,0,0,1,18,21.74Z"/>
<path class="cls-2" d="M8,26.74a5.24,5.24,0,0,1-3.71-8.95l6-6A5.21,5.21,0,0,1,14,10.26a5.31,5.31,0,0,1,3.71,1.53,5.22,5.22,0,0,1,.59,6.7,1,1,0,0,1-1.64-1.16,3.19,3.19,0,0,0-.37-4.12,3.27,3.27,0,0,0-2.29-1,3.21,3.21,0,0,0-2.29,1l-6,6a3.24,3.24,0,0,0,4.58,4.58l2.55-2.55a1,1,0,1,1,1.42,1.42l-2.55,2.55A5.24,5.24,0,0,1,8,26.74Z"/>
</g></svg>