<?xml version="1.0" ?><svg viewBox="0 0 32 32" xmlns="http://www.w3.org/2000/svg"><defs><style>.cls-1{fill:#d8e1ef;}.cls-2{fill:#0593ff;}.cls-3{fill:#0e6ae0;}</style></defs><title/><g data-name="Email Lock" id="Email_Lock"><path class="cls-1" d="M23,5H5A3,3,0,0,0,2,8V20a3,3,0,0,0,3,3H25a1,1,0,0,0,1-1V8A3,3,0,0,0,23,5Z"/><path class="cls-2" d="M14,14a1,1,0,0,1-.39-.08l-7-3a1,1,0,0,1,.78-1.84L14,11.91l6.61-2.83a1,1,0,1,1,.78,1.84l-7,3A1,1,0,0,1,14,14Z"/><path class="cls-3" d="M27,19H23a1,1,0,0,1-1-1V16a3,3,0,0,1,6,0v2A1,1,0,0,1,27,19Zm-3-2h2V16a1,1,0,0,0-2,0Z"/><rect class="cls-2" height="10" rx="2" ry="2" width="10" x="20" y="17"/><path class="cls-3" d="M25,24a2,2,0,1,1,2-2A2,2,0,0,1,25,24Zm0-2h0Zm0,0h0Zm0,0h0Zm0,0h0Zm0,0h0Zm0,0h0Zm0,0h0Zm0,0h0Z"/></g></svg>