<?xml version="1.0" ?><svg viewBox="0 0 32 32" xmlns="http://www.w3.org/2000/svg"><defs><style>.cls-1{fill:#d9e1e8;}.cls-2{fill:#4bb1f7;}.cls-3{fill:#2893ea;}.cls-4{fill:#1a76d3;}</style></defs><title/><g id="Gift"><path class="cls-1" d="M25,2a7.15,7.15,0,0,0-6,2.8A7.15,7.15,0,0,0,13,2C9.59,2,9.32,3.66,9.32,4.17,9.32,6.42,13.3,8,19,8s9.68-1.58,9.68-3.83C28.68,3.66,28.41,2,25,2ZM11.4,4.25A3.84,3.84,0,0,1,13,4a5.13,5.13,0,0,1,4.36,2C13.64,5.72,11.83,4.75,11.4,4.25ZM20.64,6A5.15,5.15,0,0,1,25,4a3.84,3.84,0,0,1,1.6.25C26.17,4.75,24.36,5.72,20.64,6Z"/><rect class="cls-2" height="18" rx="1" ry="1" width="22" x="5" y="12"/><rect class="cls-3" height="8" rx="1" ry="1" width="28" x="2" y="6"/><path class="cls-3" d="M22,13.22V30H16V13.22A1.13,1.13,0,0,1,17,12h4A1.13,1.13,0,0,1,22,13.22Z"/><rect class="cls-4" height="8" width="8" x="15" y="6"/></g></svg>